<svg width="24" height="24" viewBox="0 0 24 24" fill="none" xmlns="http://www.w3.org/2000/svg">
  <path d="M14 2H6C4.9 2 4 2.9 4 4V20C4 21.1 4.9 22 6 22H18C19.1 22 20 21.1 20 20V8L14 2Z" fill="#ef4444" opacity="0.8"/>
  <path d="M14 8V3L19 8H14Z" fill="#f87171"/>
  <path d="M10.7 15.2H9.2V18H8V11H10.8C12.4 11 13.2 11.9 13.2 13.1C13.2 14.4 12.3 15.2 10.7 15.2ZM10.4 12H9.2V14.2H10.5C11.4 14.2 11.9 13.8 11.9 13.1C11.9 12.4 11.4 12 10.4 12ZM15.7 18H14.6V11.9H15.7V18ZM18.7 18H17.5V11.9H18.7V18Z" fill="white"/>
</svg> 